<?xml version="1.0" encoding="utf-8"?>
<!-- Generator: Adobe Illustrator 27.5.0, SVG Export Plug-In . SVG Version: 6.00 Build 0)  -->
<svg version="1.1" xmlns="http://www.w3.org/2000/svg" xmlns:xlink="http://www.w3.org/1999/xlink" x="0px" y="0px"
	 viewBox="0 0 500 500" style="enable-background:new 0 0 500 500;" xml:space="preserve">
<g id="BACKGROUND">
	<rect style="fill:#FFFFFF;" width="500" height="500"/>
</g>
<g id="OBJECT">
	<path style="fill:#D6F7EE;" d="M377.477,264.574c13.945-3.778,29.69-1.71,41.345,6.828c11.655,8.539,18.476,23.785,15.644,37.953
		c-2.82,14.111-14.358,26.483-12.683,40.776c0.892,7.607,5.449,14.189,8.926,21.013c12.01,23.572,11.104,53.248-2.323,76.043
		c-4.385,7.445-10.183,14.314-17.797,18.398c-9.258,4.966-20.198,5.365-30.7,5.654c-9.735,0.267-19.469,0.535-29.204,0.802
		c-21.637,0.594-44.632,0.849-63.156-10.347c-11.776-7.118-20.808-18.657-24.887-31.799c-4.08-13.142-3.171-27.767,2.505-40.302
		c5.813-12.839,16.157-23.043,26.944-32.113c10.787-9.07,22.317-17.4,31.649-27.961c5.62-6.361,10.413-13.639,13.307-21.654
		c2.1-5.814,2.434-12.438,5.311-17.957C348.764,277.615,364.558,268.074,377.477,264.574z"/>
	<path style="fill:#D6F7EE;" d="M110.507,277.048c-17.309-9.356-41.09-2.877-52.186,13.37c-11.096,16.248-8.965,39.9,4.013,54.688
		c3.079,3.508,6.673,6.559,9.52,10.257c2.847,3.699,4.946,8.3,4.35,12.929c-1.103,8.573-10.229,13.209-16.536,19.12
		c-13.326,12.487-14.713,34.515-5.982,50.555s25.689,26.384,43.409,30.799c17.72,4.415,36.305,3.569,54.484,1.824
		c15.061-1.446,30.713-3.73,43.14-12.361c11.328-7.868,18.979-20.817,20.407-34.535c1.428-13.719-3.394-27.965-12.859-37.997
		c-6.098-6.463-14.296-11.719-16.901-20.214c-1.942-6.336-0.281-13.22,2.199-19.366c2.48-6.146,5.786-12.01,7.302-18.461
		c3.073-13.079-2.219-27.74-12.938-35.839c-11.3-8.539-23.847-7.302-36.719-4.111C130.959,291.238,122.356,283.453,110.507,277.048z
		"/>
	<path style="fill:#D6F7EE;" d="M104.497,31.108C91.16,32.786,78.091,38.609,69.131,48.63c-8.96,10.021-13.317,24.443-9.822,37.423
		c2.03,7.54,6.452,14.171,9.829,21.211c3.376,7.041,5.738,15.181,3.324,22.607c-2.533,7.794-9.673,13.03-14.468,19.676
		c-9.017,12.497-9.109,30.126-2.262,43.931c6.847,13.805,19.779,23.945,34.045,29.771c14.266,5.826,29.85,7.688,45.254,8.117
		c22.314,0.622,45.671-1.977,64.416-14.099c16.871-10.91,28.836-29.792,29.592-49.869c0.756-20.077-10.592-40.584-28.832-49.008
		c-13.125-6.061-29.86-6.672-38.685-18.124c-6.432-8.347-6.289-19.407-6.916-29.408c-0.576-9.194-2.504-18.439-6.79-26.689
		C140.172,29.454,118.86,29.3,104.497,31.108z"/>
	<path style="fill:#D6F7EE;" d="M279.87,65.218c-8.352,15.02-9.003,34.069-1.696,49.625c4.249,9.046,11.131,17.434,11.382,27.425
		c0.435,17.294-18.97,29.898-19.663,47.183c-0.385,9.592,5.394,18.645,13.084,24.39c7.69,5.745,17.094,8.675,26.424,10.931
		c26.333,6.368,53.766,8.157,80.703,5.265c14.917-1.602,30.34-4.929,41.953-14.427c9.738-7.964,16.016-20.021,16.957-32.566
		c0.94-12.545-3.47-25.404-11.912-34.73c-6.407-7.079-14.793-11.995-22.349-17.833c-7.555-5.838-14.659-13.215-16.692-22.544
		c-1.84-8.442,0.733-17.152,1.089-25.785c0.732-17.774-8.798-35.611-23.981-44.882C347.159,20.166,295.469,37.165,279.87,65.218z"/>
	<g>
		<g>
			<rect x="45.786" y="222.028" style="fill:#F4D071;" width="184.746" height="3.464"/>
			<rect x="45.786" y="225.492" style="fill:#ECA85E;" width="184.746" height="9.21"/>
		</g>
		<g>
			<g>
				<polygon style="fill:#797C99;" points="126.414,189.595 126.414,222.028 84.989,222.028 89.476,158.658 83.572,112.842 
					111.085,107.292 126.024,110.126 				"/>
				<polygon style="fill:#797C99;" points="126.414,189.595 126.414,222.028 167.84,222.028 163.353,158.658 169.257,112.842 
					141.744,107.292 126.805,110.126 				"/>
				<polygon style="fill:#FFFFFF;" points="126.414,110.126 111.085,107.292 117.264,153.855 126.414,188.02 135.564,153.855 
					141.744,107.292 				"/>
				<polygon style="fill:#FBEED1;" points="126.414,110.126 111.085,107.292 118.288,127.09 123.247,121.58 126.414,121.58 
					129.582,121.58 134.541,127.09 141.744,107.292 				"/>
				<polygon style="fill:#495375;" points="135.617,195.066 167.84,222.028 166.152,198.189 146.428,188.02 				"/>
				<g>
					<path style="fill:#B06556;" d="M126.024,102.274L126.024,102.274c-4.036,0-7.766-1.668-10.803-4.489v3.367l11.193,8.974
						l11.193-8.974V97.02C134.441,100.304,130.412,102.274,126.024,102.274z"/>
					<path style="fill:#353A3E;" d="M126.024,94.421h-10.803v3.363c3.037,2.821,6.767,4.489,10.803,4.489l0,0
						c4.389,0,8.417-1.97,11.584-5.254v-2.598H126.024z"/>
				</g>
				<path style="fill:#495375;" d="M111.085,107.292l-8.524,16.959c-1.561,3.106-0.451,6.89,2.54,8.66l2.402,1.421l-6.166,8.563
					c-1.436,1.995-1.647,4.622-0.548,6.821l1.354,2.709c4.614,9.227,10.031,18.03,16.189,26.306l8.082,10.862l-9.15-35.739
					L111.085,107.292z"/>
				<polygon style="fill:#E4737B;" points="126.414,110.126 121.756,117.319 123.247,121.58 126.414,121.58 129.582,121.58 
					131.073,117.319 				"/>
				<polygon style="fill:#E4737B;" points="129.582,121.58 126.414,121.58 123.247,121.58 119.799,163.318 126.414,189.595 
					133.03,163.318 				"/>
				<path style="fill:#495375;" d="M141.744,107.292l8.524,16.959c1.561,3.106,0.451,6.89-2.54,8.66l-2.402,1.421l6.166,8.563
					c1.436,1.995,1.648,4.622,0.548,6.821l-1.355,2.709c-4.613,9.227-10.031,18.03-16.189,26.306l-8.082,10.862l9.15-35.739
					L141.744,107.292z"/>
				<polygon style="fill:#495375;" points="117.212,195.066 84.989,222.028 86.677,198.189 106.401,188.02 				"/>
				<polygon style="fill:#FFFFFF;" points="115.221,101.152 111.085,107.292 118.996,121.58 126.414,110.126 				"/>
				<polygon style="fill:#FFFFFF;" points="137.608,101.152 141.744,107.292 133.833,121.58 126.414,110.126 				"/>
				<path style="fill:#9497B2;" d="M84.957,112.563l19.633-3.96c0.835-0.169,1.646,0.384,1.794,1.223l0.013,0.076
					c0.144,0.813-0.389,1.593-1.2,1.753l-19.646,3.884c-0.861,0.17-1.687-0.424-1.799-1.295l0,0
					C83.651,113.454,84.177,112.72,84.957,112.563z"/>
				<path style="fill:#9497B2;" d="M167.871,112.563l-19.633-3.96c-0.835-0.169-1.646,0.384-1.794,1.223l-0.014,0.076
					c-0.144,0.813,0.389,1.593,1.2,1.753l19.646,3.884c0.861,0.17,1.687-0.424,1.799-1.295l0,0
					C169.178,113.454,168.652,112.72,167.871,112.563z"/>
			</g>
			<g>
				<path style="fill:#353A3E;" d="M149.468,34.207c-4.693-6.062-11.928-9.611-19.595-9.611h-3.849h-3.849
					c-7.667,0-14.902,3.549-19.595,9.611v0c-4.479,5.785-6.172,13.253-4.627,20.404l4.4,20.365l23.672-26.291l23.672,26.291
					l4.4-20.365C155.64,47.46,153.947,39.992,149.468,34.207L149.468,34.207z"/>
				<g>
					<circle style="fill:#B06556;" cx="99.255" cy="76.886" r="7.144"/>
					<path style="fill:#8E4746;" d="M102.995,76.886c0,2.065-1.674,3.74-3.74,3.74s-3.74-1.674-3.74-3.74
						c0-2.065,1.674-3.74,3.74-3.74S102.995,74.821,102.995,76.886z"/>
				</g>
				<g>
					<circle style="fill:#B06556;" cx="152.793" cy="76.886" r="7.144"/>
					<path style="fill:#8E4746;" d="M149.053,76.886c0,2.065,1.674,3.74,3.74,3.74c2.065,0,3.74-1.674,3.74-3.74
						c0-2.065-1.674-3.74-3.74-3.74C150.727,73.146,149.053,74.821,149.053,76.886z"/>
				</g>
				<path style="fill:#B06556;" d="M141.307,45.399c-1.436-2.706-4.662-3.911-7.524-2.821l-3.382,1.289
					c-2.819,1.074-5.934,1.074-8.753,0l-3.382-1.289c-2.862-1.091-6.088,0.115-7.524,2.821c-2.419,4.558-5.988,10.411-8.389,14.26
					v15.317c0,13.074,10.598,23.672,23.672,23.672l0,0c13.073,0,23.672-10.598,23.672-23.672V59.659
					C147.294,55.81,143.725,49.957,141.307,45.399z"/>
				<g>
					<g>
						<g>
							<path style="fill:#353A3E;" d="M113.62,55.042c-3.04,0.749-5.255,3.019-6.043,5.69c4.542-1.641,9.257-2.805,14.04-3.466
								C119.677,55.269,116.66,54.291,113.62,55.042z"/>
						</g>
						<circle style="fill:#353A3E;" cx="115.947" cy="67.951" r="1.791"/>
					</g>
					<g>
						<g>
							<path style="fill:#353A3E;" d="M138.427,55.042c3.04,0.749,5.255,3.019,6.043,5.69c-4.542-1.641-9.257-2.805-14.04-3.466
								C132.371,55.269,135.388,54.291,138.427,55.042z"/>
						</g>
						<circle style="fill:#353A3E;" cx="136.1" cy="67.951" r="1.791"/>
					</g>
					<path style="fill:#8E4746;" d="M129.482,78.084c-2.252-0.247-4.527-0.289-6.787-0.127c0.5,1.195,1.912,2.019,3.203,2.132
						C127.188,80.203,128.781,79.174,129.482,78.084z"/>
					<path style="fill:#FFFFFF;" d="M133.03,83.804c-4.169,1.676-8.783,2.235-13.232,1.603c1.329,2.435,4.142,3.971,6.902,3.7
						C129.461,88.834,132.201,86.451,133.03,83.804z"/>
				</g>
				<g>
					<g>
						<path style="fill:#4F565B;" d="M124.462,41.885c0.242-3.506-1.28-8.622-3.398-11.427
							C120.823,33.965,122.344,39.081,124.462,41.885z"/>
					</g>
					<g>
						<path style="fill:#4F565B;" d="M128.895,42.111c1.173-3.092,1.196-8.115,0.052-11.218
							C127.773,33.986,127.75,39.008,128.895,42.111z"/>
					</g>
					<g>
						<path style="fill:#4F565B;" d="M133.234,39.159c0.554-0.687,0.986-1.745,1.138-2.851c0.158-1.105,0.033-2.241-0.311-3.053
							c-0.275,0.84-0.46,1.881-0.608,2.925C133.308,37.224,133.201,38.276,133.234,39.159z"/>
					</g>
					<g>
						<path style="fill:#4F565B;" d="M116.062,41.674c-0.349-1.355-1.019-2.901-1.774-4.4c-0.76-1.497-1.608-2.953-2.492-4.037
							c-0.045,1.396,0.385,3.135,1.181,4.7C113.766,39.505,114.911,40.883,116.062,41.674z"/>
					</g>
					<g>
						<path style="fill:#4F565B;" d="M108.011,45.595c-0.597-1.755-2.38-3.935-3.982-4.868
							C104.625,42.482,106.408,44.661,108.011,45.595z"/>
					</g>
					<g>
						<path style="fill:#4F565B;" d="M107.02,47.543c-0.779-0.997-2.418-2.002-3.66-2.243
							C104.139,46.297,105.777,47.301,107.02,47.543z"/>
					</g>
					<g>
						<path style="fill:#4F565B;" d="M139.561,40.375c1.545-1.425,2.985-4.273,3.217-6.362
							C141.233,35.438,139.793,38.286,139.561,40.375z"/>
					</g>
					<g>
						<path style="fill:#4F565B;" d="M144.357,44.39c0.947-0.205,2.043-0.942,2.77-1.975c0.739-1.024,1.079-2.3,0.964-3.262
							c-0.55,0.8-1.138,1.757-1.793,2.67C145.647,42.741,144.934,43.61,144.357,44.39z"/>
					</g>
					<g>
						<path style="fill:#4F565B;" d="M145.907,47.343c1.128-0.551,2.441-1.934,2.931-3.09
							C147.709,44.803,146.397,46.187,145.907,47.343z"/>
					</g>
				</g>
			</g>
			<g>
				<path style="fill:#99A3B0;" d="M117.925,197.489L100.5,180.064l-1.812,1.812l17.425,17.425
					c-0.649,1.393-0.412,3.096,0.737,4.246l0.338,0.338l5.082,5.082c0.302,0.302,0.793,0.302,1.095,0s0.302-0.793,0-1.095
					l-5.082-5.082l1.018-1.018l5.082,5.082c0.302,0.302,0.793,0.302,1.095,0s0.302-0.793,0-1.095l-5.082-5.082l1.018-1.018
					l5.082,5.082c0.302,0.302,0.793,0.302,1.095,0c0.302-0.302,0.302-0.793,0-1.095l-5.082-5.082l-0.338-0.338
					C121.021,197.076,119.317,196.839,117.925,197.489z"/>
				<g>
					<path style="fill:#797C99;" d="M83.572,112.842L83.572,112.842c-2.763,0.619-4.88,2.844-5.36,5.634l-13.69,79.463
						l23.006-11.575l1.949-27.707L83.572,112.842z"/>
					<polygon style="fill:#495375;" points="86.701,137.129 80.423,185.501 70.561,194.901 87.527,186.365 89.476,158.658 					"/>
					<path style="fill:#797C99;" d="M97.011,181.593l-32.489,16.346v5.072c0,6.503,5.271,11.774,11.774,11.774l0,0
						c2.88,0,5.66-1.056,7.815-2.967l14.576-12.934L97.011,181.593z"/>
					<path style="fill:#B06556;" d="M89.4,188.945l7.611-7.351c1.338-1.292,3.243-1.812,5.052-1.379l5.924,1.418
						c1.53,0.366,2.91,1.195,3.951,2.374l5.628,6.368c1.224,1.385,1.064,3.506-0.353,4.692l0,0
						c-0.851,0.712-2.005,0.946-3.066,0.622l-3.966-1.212l-8.082,6.63c-3.281,2.691-8.12,2.23-10.833-1.034l-2.32-2.791
						C86.891,194.811,87.09,191.176,89.4,188.945z"/>
				</g>
			</g>
			<g>
				<path style="fill:#C7D2D7;" d="M149.304,183.927l-10.202,10.303l0.123,0.306c0.425,1.061,0.176,2.272-0.631,3.08l-3.265,3.265
					c-3.083,3.083-7.212,4.892-11.568,5.067l7.375-7.375l6.931-6.931l9.426-9.527L149.304,183.927z"/>
				<g>
					<path style="fill:#797C99;" d="M155.818,181.593l32.489,16.346v5.072c0,6.503-5.271,11.774-11.774,11.774l0,0
						c-2.88,0-5.66-1.056-7.815-2.967l-14.576-12.934L155.818,181.593z"/>
					<path style="fill:#797C99;" d="M169.257,112.842L169.257,112.842c2.763,0.619,4.879,2.844,5.36,5.634l13.69,79.463
						l-23.005-11.575l-1.949-27.707L169.257,112.842z"/>
					<polygon style="fill:#495375;" points="166.127,137.129 172.406,185.501 182.268,194.901 165.302,186.365 163.353,158.658 
											"/>
					<path style="fill:#B06556;" d="M163.429,188.945l-7.611-7.351c-1.338-1.292-3.243-1.812-5.052-1.379l-5.924,1.418
						c-1.53,0.366-2.91,1.195-3.951,2.374l-5.628,6.368c-1.224,1.385-1.064,3.506,0.353,4.692l0,0
						c0.851,0.712,2.005,0.946,3.066,0.622l3.966-1.212l8.083,6.63c3.281,2.691,8.12,2.23,10.832-1.034l2.32-2.791
						C165.938,194.811,165.739,191.176,163.429,188.945z"/>
				</g>
			</g>
			<g>
				<g>
					<path style="fill:#F4F3E9;" d="M203.424,202.19c-2.313,0-4.459-0.723-6.231-1.949c-1.14,0.297-2.29,0.56-3.442,0.809
						c2.203,2.164,5.12,3.605,8.374,3.909v11.795l-11.328,5.274h25.253l-11.328-5.274v-11.795c7.02-0.655,12.517-6.559,12.517-13.75
						v-1.314c-0.916,0.881-1.886,1.71-2.899,2.486C213.754,197.887,209.084,202.19,203.424,202.19z"/>
					<path style="fill:#FFFFFF;" d="M189.609,172.827v18.381c0,3.858,1.592,7.336,4.143,9.841c1.152-0.249,2.302-0.512,3.442-0.809
						c-2.866-1.983-4.751-5.29-4.751-9.032v-5.95c0.606,0.036,1.21,0.105,1.801,0.203c2.566,0.428,5.048,1.297,7.628,1.628
						c4.346,0.558,8.861-0.535,12.534-2.915v7.034c0,0.396-0.023,0.787-0.065,1.172c1.013-0.776,1.982-1.605,2.899-2.486v-17.068
						H189.609z"/>
					<path style="fill:#A34262;" d="M214.341,192.381c0.041-0.385,0.065-0.776,0.065-1.172v-7.034
						c-3.673,2.379-8.188,3.472-12.534,2.915c-2.58-0.331-5.062-1.2-7.628-1.628c-0.591-0.099-1.195-0.167-1.801-0.203v5.95
						c0,3.742,1.884,7.049,4.751,9.032c4.218-1.098,8.327-2.557,12.154-4.628C211.087,194.672,212.764,193.589,214.341,192.381z"/>
					<path style="fill:#843252;" d="M214.341,192.381c-1.578,1.208-3.254,2.291-4.994,3.233c-3.827,2.07-7.936,3.529-12.154,4.628
						c1.772,1.226,3.918,1.949,6.231,1.949C209.084,202.19,213.754,197.887,214.341,192.381z"/>
				</g>
				<g>
					<polygon style="fill:#FFFFFF;" points="170.256,222.028 100.091,222.028 90.421,214.786 179.926,214.786 					"/>
					<g>
						<path style="fill:#A34262;" d="M156.939,209.837c-1.163-0.139-2.341-0.353-3.497-0.164c-2.314,0.379-4.316,2.332-6.646,2.065
							c-2.556-0.293-4.291-3.165-6.86-3.308c-1.801-0.1-3.346,1.176-4.732,2.329c-1.387,1.153-3.072,2.321-4.839,1.961
							c-1.543-0.315-2.716-1.745-4.281-1.916c-2.318-0.253-4.261,2.339-6.571,2.016c-2.255-0.316-3.321-3.165-5.477-3.896
							c-2.831-0.96-5.574,2.156-8.558,1.986c-1.662-0.095-3.101-1.405-3.584-2.975c-0.43,0.688-0.688,1.494-0.688,2.365
							c0,2.478,2.009,4.487,4.487,4.487h49.909c2.478,0,4.487-2.009,4.487-4.487c0-0.214-0.034-0.419-0.063-0.625
							C159.047,209.996,157.972,209.96,156.939,209.837z"/>
						<path style="fill:#CC6164;" d="M155.601,205.811h-49.909c-1.607,0-3.006,0.852-3.799,2.122c0.483,1.57,1.922,2.88,3.584,2.975
							c2.984,0.171,5.727-2.946,8.558-1.986c2.157,0.731,3.222,3.581,5.477,3.896c2.31,0.323,4.252-2.27,6.571-2.016
							c1.566,0.171,2.738,1.601,4.281,1.916c1.767,0.361,3.452-0.808,4.839-1.961c1.387-1.153,2.932-2.429,4.732-2.329
							c2.569,0.143,4.304,3.015,6.86,3.308c2.33,0.267,4.331-1.686,6.646-2.065c1.156-0.189,2.334,0.025,3.497,0.164
							c1.032,0.123,2.108,0.159,3.086-0.163C159.719,207.494,157.865,205.811,155.601,205.811z"/>
					</g>
					<g>
						<polygon style="fill:#FFFFFF;" points="177.879,202.856 146.391,202.856 152.256,211.086 172.014,211.086 						"/>
						<polygon style="fill:#C7D2D7;" points="152.256,211.086 154.893,214.786 169.378,214.786 172.014,211.086 						"/>
					</g>
				</g>
			</g>
		</g>
	</g>
	<g>
		<g>
			<rect x="270.919" y="222.028" style="fill:#F4D071;" width="184.746" height="3.464"/>
			<rect x="270.919" y="225.492" style="fill:#ECA85E;" width="184.746" height="9.21"/>
		</g>
		<g>
			<g>
				<polygon style="fill:#CC6164;" points="350.504,112.642 301.028,103.632 303.94,140.832 303.94,222.028 350.504,222.028 
					397.067,222.028 397.067,140.832 385.391,106.288 				"/>
				<g>
					<g>
						<path style="fill:#A34262;" d="M382.738,173.653c-5.278-0.792-11.246-1.762-17.483-3.168
							c-6.238-1.397-12.739-3.225-19.098-5.474c-6.353-2.263-12.552-4.944-18.274-7.793c-5.728-2.841-10.971-5.852-15.567-8.565
							c3.51,4.01,8.15,8.165,13.653,11.853c5.493,3.696,11.837,6.917,18.491,9.286c6.659,2.358,13.613,3.858,20.207,4.453
							C371.264,174.852,377.486,174.552,382.738,173.653z"/>
					</g>
					<g>
						<path style="fill:#A34262;" d="M386.522,150.876c-7.362,0.841-16.748,2.014-26.19,2.482
							c-9.44,0.515-18.896,0.324-26.306,0.251c7.006,2.392,16.763,3.802,26.489,3.267
							C370.244,156.399,379.803,153.983,386.522,150.876z"/>
					</g>
					<g>
						<path style="fill:#A34262;" d="M360.275,182.382c-2.961,0.179-6.315,0.319-9.86,0.219c-3.545-0.094-7.277-0.426-10.967-1.032
							c-3.689-0.615-7.329-1.504-10.715-2.557c-3.389-1.048-6.519-2.26-9.264-3.384c2.251,1.923,5.154,3.822,8.506,5.358
							c3.347,1.542,7.133,2.719,11.013,3.364c3.881,0.639,7.844,0.745,11.51,0.363C354.165,184.339,357.525,183.478,360.275,182.382
							z"/>
					</g>
				</g>
			</g>
			<g>
				<g>
					<path style="fill:#353A3E;" d="M415.78,141.378c2.115-0.882,4.334-1.501,6.596-1.867l-1.929-4.457
						c-5.086,0-9.958,2.045-13.519,5.675l-5.084,5.181l4.645,1.65C409.162,144.939,412.326,142.819,415.78,141.378z"/>
					<path style="fill:#DD947D;" d="M422.376,139.511c-2.262,0.366-4.481,0.986-6.596,1.867c-3.455,1.441-6.618,3.561-9.29,6.182
						l22.887,8.127L422.376,139.511z"/>
				</g>
				<g>
					<path style="fill:#CC6164;" d="M414.283,127.936c2.963-0.583,5.975-0.761,8.999-0.773l-9.852-17.956
						c-3.633-6.622-11.638-9.489-18.648-6.68l-9.39,3.762l10.728,31.74C400.959,132.922,407.374,129.296,414.283,127.936z"/>
					<path style="fill:#F4D074;" d="M414.283,127.936c-6.909,1.36-13.323,4.986-18.163,10.092l0.948,2.804l2.93,6.962l6.931-7.065
						c3.562-3.63,8.434-5.675,13.519-5.675h7.163l-4.329-7.891C420.258,127.174,417.245,127.352,414.283,127.936z"/>
				</g>
				<polygon style="fill:#A34262;" points="427.611,135.054 422.948,140.832 420.447,135.054 				"/>
			</g>
			<g>
				<g>
					
						<ellipse transform="matrix(0.9247 -0.3806 0.3806 0.9247 -15.5603 128.9603)" style="fill:#E7B998;" cx="318.273" cy="103.822" rx="8.821" ry="8.821"/>
					<path style="fill:#DD947D;" d="M322.833,103.822c0,2.519-2.042,4.56-4.56,4.56c-2.519,0-4.56-2.042-4.56-4.56
						c0-2.519,2.042-4.56,4.56-4.56C320.791,99.261,322.833,101.303,322.833,103.822z"/>
				</g>
				<g>
					
						<ellipse transform="matrix(0.7071 -0.7071 0.7071 0.7071 38.6875 301.043)" style="fill:#E7B998;" cx="382.735" cy="103.822" rx="8.821" ry="8.821"/>
					<path style="fill:#DD947D;" d="M378.175,103.822c0,2.519,2.042,4.56,4.56,4.56c2.518,0,4.56-2.042,4.56-4.56
						c0-2.519-2.042-4.56-4.56-4.56C380.216,99.261,378.175,101.303,378.175,103.822z"/>
				</g>
				<path style="fill:#D26650;" d="M322.833,103.822l-8.024-23.271c-2.596-7.53-0.594-15.881,5.133-21.416l4.623-4.467h-8.659
					l24.876-11.021l-5.668-3.779h4.479c8.115,0,16.206,0.889,24.128,2.65l7.906,1.758l0.958-9.446l2.991,12.753l9.132-8.03
					l-5.747,10.706l15.193,13.697l-10.391-2.362l0,0c4.799,5.818,6.015,13.802,3.164,20.784l-8.753,21.443H322.833z"/>
				
					<ellipse transform="matrix(0.1591 -0.9873 0.9873 0.1591 180.0819 443.6819)" style="fill:#F4D074;" cx="350.504" cy="116.124" rx="21.124" ry="21.123"/>
				<g>
					<path style="fill:#E7B998;" d="M350.504,128.511c-8.324,0-15.177-6.258-16.137-14.325c-0.076,0.636-0.126,1.281-0.126,1.938
						c0,8.981,7.281,16.262,16.262,16.262s16.263-7.281,16.263-16.262c0-0.657-0.05-1.301-0.126-1.938
						C365.681,122.253,358.828,128.511,350.504,128.511z"/>
					<path style="fill:#353A3E;" d="M350.504,128.511c8.324,0,15.177-6.258,16.137-14.325c-0.96-8.066-7.812-14.325-16.137-14.325
						s-15.177,6.258-16.137,14.325C335.327,122.253,342.179,128.511,350.504,128.511z"/>
				</g>
				<path style="fill:#E7B998;" d="M368.499,70.128c-7.719,9.154-19.261,14.652-31.224,15.183c2.617-2.998,5.208-5.922,7.825-8.92
					c-5.131,2.233-10.171,4.415-15.302,6.648c3.727-4.25,7.409-8.703,11.137-12.953c-5.364,2.486-13.464,8.603-18.852,13.331
					c-0.024,0.477-0.036,0.956-0.036,1.439v11.808c0,15.717,12.741,28.458,28.458,28.458s28.458-12.741,28.458-28.458V84.857
					c0-1.822-0.178-3.601-0.505-5.327C375.394,76.136,372.133,72.95,368.499,70.128z"/>
				<g>
					<g>
						<path style="fill:#D26650;" d="M335.043,88.219c-3.152,0.229-5.834,1.94-7.439,4.396l15.434-1.12
							C341.096,89.296,338.194,87.99,335.043,88.219z"/>
					</g>
					<path style="fill:#353A3E;" d="M339.26,98.495c0,1.386-1.123,2.509-2.509,2.509s-2.509-1.123-2.509-2.509
						c0-1.386,1.124-2.509,2.509-2.509S339.26,97.109,339.26,98.495z"/>
				</g>
				<g>
					<g>
						<path style="fill:#D26650;" d="M365.964,88.219c3.152,0.229,5.834,1.94,7.438,4.396l-15.434-1.12
							C359.911,89.296,362.813,87.99,365.964,88.219z"/>
					</g>
					<circle style="fill:#353A3E;" cx="364.257" cy="98.495" r="2.509"/>
				</g>
				<path style="fill:#DD947D;" d="M353.397,107.528H344.6c1.114,1.191,2.579,2.099,4.209,2.094
					C350.439,109.618,352.29,108.725,353.397,107.528z"/>
				<path style="fill:#FFFFFF;" d="M361.085,110.697c-7.233,2.421-14.976,3.304-22.568,2.573c2.097,2.298,4.777,4.301,7.798,5.047
					c2.858,0.706,5.962,0.361,8.596-0.954C357.544,116.048,359.932,113.404,361.085,110.697z"/>
				<g>
					<g>
						<path style="fill:#EA7E6C;" d="M355.71,65.455c2.682,0,6.061-1.249,8.739-3.454c2.7-2.178,4.605-5.236,5.146-7.863
							c-2.143,1.623-4.492,3.701-6.928,5.676C360.241,61.802,357.732,63.683,355.71,65.455z"/>
					</g>
					<g>
						<path style="fill:#EA7E6C;" d="M343.273,57.364c6.979,1.094,17.488-1.062,23.472-4.815
							C359.766,51.455,349.257,53.61,343.273,57.364z"/>
					</g>
					<g>
						<path style="fill:#EA7E6C;" d="M352.117,46.832c2.197,0.817,4.943,1.404,7.703,1.872c2.762,0.458,5.549,0.799,7.892,0.744
							c-1.8-1.495-4.572-2.689-7.485-3.171C357.317,45.782,354.306,46.006,352.117,46.832z"/>
					</g>
					<g>
						<path style="fill:#EA7E6C;" d="M381.933,67.807c-1.366-4.813-5.869-10.933-10.058-13.669
							C373.241,58.951,377.744,65.071,381.933,67.807z"/>
					</g>
				</g>
			</g>
			<g>
				<path style="fill:#E7B998;" d="M394.942,151.337l8.049,16.768c3.005,6.26,10.03,9.506,16.744,7.736l0,0
					c6.788-1.789,11.316-8.189,10.742-15.186l-0.051-0.621c-0.339-4.13-2.43-7.916-5.745-10.402l-19.44-14.578L394.942,151.337z"/>
				<g>
					<polygon style="fill:#21255C;" points="342.634,165.271 341.41,164.047 399.017,104.837 401.845,107.664 					"/>
					<g>
						<polygon style="fill:#ECA85E;" points="351.376,150.281 351.376,189.28 354.147,189.28 354.147,147.595 						"/>
						<path style="fill:#ECA85E;" d="M346.078,155.418c-0.086,0.083-0.16,0.175-0.243,0.26v33.602h2.771v-36.313L346.078,155.418z"
							/>
						<polygon style="fill:#F4D071;" points="348.606,152.967 348.606,189.28 351.376,189.28 351.376,150.281 						"/>
						<path style="fill:#F4D071;" d="M343.065,162.536v26.744h2.77v-33.602C344.066,157.521,343.065,159.972,343.065,162.536z"/>
						<path style="fill:#F4D071;" d="M360.729,141.214l-1.041,1.009v47.056h2.771v-49.221
							C361.825,140.338,361.236,140.722,360.729,141.214z"/>
						<polygon style="fill:#F4D071;" points="354.147,147.595 354.147,189.28 356.917,189.28 356.917,144.91 						"/>
						<path style="fill:#ECA85E;" d="M365.229,139.565c-0.961-0.065-1.908,0.114-2.771,0.494v49.221h2.771V139.565z"/>
						<polygon style="fill:#ECA85E;" points="356.917,144.91 356.917,189.28 359.688,189.28 359.688,142.224 						"/>
					</g>
					<polygon style="fill:#495375;" points="342.332,165.524 341.192,164.221 402.608,108.971 405.241,111.981 					"/>
					<path style="fill:#E7B998;" d="M392.901,126.207l-5.591,1.148c-3.725,0.765-7.282,2.195-10.499,4.222l-9.648,6.078
						c-1.855,1.169-2.477,3.581-1.419,5.501l0,0c0.956,1.735,3.007,2.549,4.892,1.943l6.672-2.145l7.93,8.676
						c3.745,4.097,9.742,5.238,14.73,2.801l1.928-0.942c6.518-3.184,9.124-11.118,5.763-17.547l-1.897-3.628
						C403.318,127.637,398.071,125.145,392.901,126.207z"/>
				</g>
			</g>
			<g>
				<path style="fill:#FFFFFF;" d="M334.916,222.028h46.773c7.472-3.857,13.859-9.508,18.617-16.374h-84.007
					C321.057,212.52,327.444,218.171,334.916,222.028z"/>
				<path style="fill:#94F2E8;" d="M311.674,197.467c1.291,2.882,2.845,5.618,4.625,8.187h84.007
					c1.78-2.569,3.334-5.305,4.625-8.187H311.674z"/>
				<path style="fill:#FFFFFF;" d="M407.796,189.28h-98.986c0.722,2.833,1.691,5.566,2.865,8.187h93.257
					C406.105,194.846,407.073,192.113,407.796,189.28z"/>
			</g>
			<g>
				<g>
					<polygon style="fill:#BAE5E5;" points="436.413,222.028 408.339,222.028 406.668,177.787 438.084,177.787 					"/>
					<polygon style="fill:#D1F4F6;" points="429.134,222.028 415.618,222.028 414.814,177.787 429.938,177.787 					"/>
				</g>
				<g>
					<polygon style="fill:#5FA5CC;" points="434.788,187.373 429.764,187.373 429.181,219.478 433.808,219.478 					"/>
					<polygon style="fill:#5FA5CC;" points="409.964,187.373 410.945,219.478 415.572,219.478 414.988,187.373 					"/>
					<polygon style="fill:#7DD3E9;" points="414.988,187.373 415.572,219.478 429.181,219.478 429.764,187.373 					"/>
				</g>
			</g>
			<g>
				<g>
					<path style="fill:#CC6164;" d="M303.94,140.832l-2.913-37.201c-5.898-0.719-11.673,2.071-14.775,7.139
						c-5.018,8.198-7.782,17.577-8.011,27.186l-0.38,15.892l26.078,2.091V140.832z"/>
					<polygon style="fill:#F4D074;" points="277.862,153.848 277.648,162.83 303.94,162.83 303.94,155.939 					"/>
				</g>
				<path style="fill:#A34262;" d="M303.941,140.1c0.057,0.008,0.117,0.021,0.173,0.028c-0.066-0.074-0.14-0.147-0.208-0.22
					c-1.103-6.649-6.042-15.436-11.131-19.751c0.853,5.576,4.487,12.732,8.663,17.486c-1.236-0.992-2.618-1.945-4.056-2.811
					c-2.614-1.57-5.4-2.862-7.834-3.465c1.44,2.051,3.813,4.124,6.477,5.723c2.58,1.555,5.422,2.652,7.859,3.001
					c0.023,0.02,0.046,0.043,0.069,0.062C303.948,140.135,303.944,140.117,303.941,140.1z"/>
				<path style="fill:#E7B998;" d="M303.94,195.027v-3.539V162.83h-22.986l-2.749,38.741c-0.357,5.035,1.293,10.007,4.59,13.83
					c3.629,4.208,8.911,6.627,14.467,6.627h15.2h38.041v-17.791L303.94,195.027z"/>
				<polygon style="fill:#353A3E;" points="280.954,162.83 303.94,162.83 303.94,172.237 280.662,166.944 				"/>
				<path style="opacity:0.2;fill:#353A3E;" d="M303.94,162.83l0.174-22.702l-1.547-16.841l0,0
					c-3.438,7.653-5.706,15.78-6.728,24.107l-1.895,15.436H303.94z"/>
				<path style="fill:#E7B998;" d="M350.504,204.237l17.951-9.768c1.429-0.777,3.095-0.998,4.677-0.62l10.707,2.563
					c1.574,0.377,2.684,1.784,2.684,3.402l0,0c0,1.769-1.32,3.26-3.077,3.473l-5.229,0.635l-0.994,9.28
					c-0.538,5.019-4.773,8.825-9.82,8.825h-16.898V204.237z"/>
			</g>
		</g>
	</g>
	<g>
		<g>
			<rect x="45.786" y="461.035" style="fill:#F4D071;" width="184.746" height="3.464"/>
			<rect x="45.786" y="464.498" style="fill:#ECA85E;" width="184.746" height="9.21"/>
		</g>
		<g>
			<rect x="108.155" y="295.636" style="fill:#E9C066;" width="43.854" height="57.461"/>
			<g>
				<polygon style="fill:#D3756A;" points="189.323,369.35 206.121,399.486 195.583,411.109 173.971,382.344 				"/>
				<polygon style="fill:#353A3E;" points="189.323,369.35 191.005,372.37 178.272,388.068 173.971,382.344 				"/>
				<g>
					<path style="fill:#7162C5;" d="M167.793,358.997c-1.338-1.507-3.122-2.581-5.054-3.151l-0.811,6.164l9.446,22.533l5.933-5.022
						c-2.108-3.866-3.922-7.893-5.401-12.04C170.843,364.5,169.894,361.363,167.793,358.997z"/>
					<path style="fill:#9484F4;" d="M181.344,353.966c-3.867-5.931-9.911-10.104-16.828-11.616l-1.777,13.496
						c1.931,0.57,3.716,1.645,5.054,3.151c2.101,2.366,3.05,5.503,4.113,8.483c1.479,4.148,3.293,8.174,5.401,12.04l13.337-11.289
						L181.344,353.966z"/>
				</g>
			</g>
			<g>
				<g>
					<path style="fill:#9484F4;" d="M96.406,342.35c-8.482,2.05-15.267,8.399-17.876,16.726l-5.399,17.233l10.854,1.123
						c1.158-3.169,2.316-6.338,3.473-9.507c1.41-3.859,2.87-7.807,5.529-10.939c1.413-1.665,3.249-3.06,5.263-3.889l0.071-0.988
						L96.406,342.35z"/>
					<path style="fill:#7162C5;" d="M92.987,356.986c-2.659,3.132-4.119,7.08-5.529,10.939c-1.158,3.169-2.315,6.338-3.473,9.507
						l12.421,1.285l1.844-25.62C96.236,353.926,94.4,355.322,92.987,356.986z"/>
				</g>
				<g>
					<path style="fill:#DD947D;" d="M93.441,456.021l-21.183-24.836c-3.924-4.601-5.533-10.741-4.37-16.676l7.445-37.973
						l19.646,2.033l-9.253,38.642l15.626,24.443L93.441,456.021z"/>
					<polygon style="fill:#353A3E;" points="75.332,376.537 94.979,378.569 93.024,386.732 74.695,379.786 					"/>
				</g>
			</g>
			<g>
				<path style="fill:#9484F4;" d="M167.762,400.011c3.096-3.676,4.909-8.337,4.872-13.044c-0.041-5.123-2.082-10.009-3.684-14.902
					c-3.158-9.647-4.626-19.618-4.433-29.715l-14.499-3.819c-1.479,6.09-10.33,13.146-21.034,13.146
					c-10.281,0-18.857-6.511-20.828-12.421l-11.749,3.095c0.193,10.098-1.275,20.069-4.433,29.715
					c-1.602,4.893-3.643,9.779-3.684,14.902c-0.038,4.708,1.776,9.368,4.871,13.044c4.08,4.845,6.656,10.809,6.76,17.143
					c0.244,14.801-1.833,29.662-6.115,43.88h36.655h36.655c-4.282-14.218-6.358-29.08-6.115-43.88
					C161.106,410.821,163.682,404.857,167.762,400.011z"/>
				<g>
					<g>
						<path style="fill:#7162C5;" d="M140.455,356.343c-2.525,0.325-5.388,0.574-8.416,0.536c-3.027-0.031-6.212-0.344-9.339-0.971
							c-3.125-0.637-6.182-1.586-8.984-2.732c-2.805-1.141-5.347-2.482-7.548-3.762c1.685,1.901,3.986,3.823,6.752,5.393
							c2.76,1.577,5.971,2.796,9.3,3.473c3.33,0.669,6.763,0.792,9.918,0.411C135.298,358.318,138.165,357.441,140.455,356.343z"/>
					</g>
					<g>
						<path style="fill:#7162C5;" d="M154.553,359.203c-4.802,0.902-10.86,3.46-16.047,7.317c-5.217,3.816-9.449,8.848-11.729,13.17
							c3.528-3.39,8.095-7.623,13.11-11.298C144.879,364.686,150.273,361.572,154.553,359.203z"/>
					</g>
					<g>
						<path style="fill:#7162C5;" d="M105.031,361.392c3.322,1.285,7.622,2.794,11.853,4.49c4.237,1.679,8.398,3.54,11.693,4.892
							c-2.703-2.315-6.73-4.748-11.066-6.465C113.182,362.573,108.585,361.57,105.031,361.392z"/>
					</g>
					<g>
						<path style="fill:#7162C5;" d="M149.886,406.507c-2.735-1.408-5.958-2.873-9.589-4.044c-3.618-1.169-7.699-1.993-11.859-1.952
							c-4.151,0.031-8.203,0.873-11.825,2.017c-3.631,1.15-6.871,2.574-9.623,3.95c6.093-0.862,13.809-2.978,21.473-3.039
							C136.109,403.356,143.805,405.572,149.886,406.507z"/>
					</g>
				</g>
			</g>
			<path style="fill:#DD947D;" d="M128.983,351.677c10.703,0,19.555-7.056,21.034-13.146l-12.407-3.268h-7.149h-7.149l-15.157,3.992
				C110.126,345.166,118.702,351.677,128.983,351.677z"/>
			<g>
				<path style="fill:#DD947D;" d="M119.064,330.659v10.792h19.2v-10.245c-2.693,2.208-5.872,3.488-9.281,3.488
					C125.301,334.694,121.886,333.203,119.064,330.659z"/>
				<path style="fill:#353A3E;" d="M119.064,322.251v8.408c2.822,2.543,6.237,4.035,9.919,4.035c3.409,0,6.588-1.28,9.281-3.488
					v-8.955H119.064z"/>
			</g>
			<g>
				<path style="fill:#F5DFAE;" d="M143.622,266.701c7.586,2.138,12.035,10.296,12.989,18.12c0.954,7.824-0.713,15.706-1.003,23.583
					c-0.62,16.901,5.055,34.277,0.111,50.451c-2.079,6.801-6.016,13.025-11.271,17.816c2.95-24.49,5.292-48.691,2.608-73.212
					C145.725,291.295,143.563,278.939,143.622,266.701z"/>
				<path style="fill:#DD947D;" d="M128.983,266.068c-12.717,0-23.026,10.309-23.026,23.026v17.948
					c0,12.717,10.309,23.026,23.026,23.026c12.717,0,23.026-10.309,23.026-23.026v-17.948
					C152.009,276.377,141.7,266.068,128.983,266.068z"/>
				<path style="fill:#F5DFAE;" d="M116.23,376.309c-2.363-6.273-2.319-13.19-1.639-19.858c0.681-6.668,1.967-13.295,1.983-19.998
					c0.026-10.66-3.15-21.039-4.686-31.588c-1.536-10.549-1.187-22.115,5.027-30.777l-14.736-5.895
					c-8.738,5.895-11.182,18.103-9.646,28.652c1.536,10.549,4.713,20.928,4.686,31.588c-0.016,6.703-1.303,13.329-1.983,19.997
					c-0.007,0.067-0.013,0.133-0.02,0.2c-1.086,10.853,5.17,21.113,15.246,25.288L116.23,376.309z"/>
				<path style="fill:#F5DFAE;" d="M116.915,274.088c8.408-3.297,22.31-4.209,28.229-1.391c3.124-4.421,3.065-11.297-0.611-15.271
					c-3.676-3.974-9.307-5.67-14.72-5.71c-5.413-0.04-10.717,1.387-15.942,2.804c-2.965,0.804-6.027,1.657-8.402,3.606
					c-2.375,1.949-4.441,7.218-3.291,10.066L116.915,274.088z"/>
				<g>
					<path style="fill:#F5DFAE;" d="M120.599,282.625c-3.012,0.658-5.28,2.797-6.215,5.405c4.615-1.398,9.341-2.432,14.119-3.089
						C126.565,282.961,123.611,281.965,120.599,282.625z"/>
				</g>
				<g>
					<path style="fill:#353A3E;" d="M128.212,291.278c-1.435,1.044-3.19,1.996-5.067,2.388c-1.875,0.403-3.865,0.246-5.601-0.126
						c0.536,0.707,1.4,1.353,2.466,1.728c1.061,0.379,2.318,0.482,3.522,0.226c1.204-0.255,2.311-0.859,3.127-1.637
						C127.481,293.083,128.008,292.142,128.212,291.278z"/>
				</g>
				<g>
					<path style="fill:#F5DFAE;" d="M145.453,282.625c2.224,0.658,3.898,2.797,4.588,5.405c-3.407-1.398-6.896-2.432-10.423-3.089
						C141.049,282.961,143.23,281.965,145.453,282.625z"/>
				</g>
				<g>
					<path style="fill:#353A3E;" d="M139.91,291.278c1.215,1.044,2.7,1.996,4.289,2.388c1.587,0.403,3.272,0.246,4.74-0.126
						c-0.454,0.707-1.185,1.353-2.087,1.728c-0.898,0.379-1.962,0.482-2.981,0.226c-1.019-0.255-1.956-0.859-2.647-1.637
						C140.528,293.083,140.082,292.142,139.91,291.278z"/>
				</g>
				<path style="fill:#D3756A;" d="M140.273,303.619c-2.781,0.245-5.561,0.489-8.342,0.733c0.871,1.408,2.739,2.419,4.391,2.3
					C137.973,306.534,139.611,305.137,140.273,303.619z"/>
				<path style="fill:#353A3E;" d="M142.584,315.032c-2.283,0.517-4.887,0.834-7.494,0.648c-2.598-0.156-5.127-0.806-7.316-1.613
					c-0.005,0.043-0.002,0.087-0.008,0.13c-0.025,0.188-0.078,0.37-0.118,0.555c2.031,1.217,4.625,2.138,7.352,2.297
					c2.743,0.201,5.455-0.381,7.636-1.335c-0.006-0.053-0.019-0.105-0.024-0.158C142.593,315.382,142.589,315.207,142.584,315.032z"
					/>
				<path style="fill:#D3756A;" d="M127.271,309.965c-0.457-1.28-1.124-2.36-1.805-3.194c0.738,1.895,1.541,4.408,1.314,6.909
					c-0.012,0.128-0.013,0.255-0.03,0.383c-0.004,0.031-0.013,0.061-0.018,0.092c-0.357,2.566-2.02,4.85-3.956,5.762
					c1.067-0.15,2.278-0.774,3.202-1.813c0.813-0.897,1.399-2.081,1.671-3.351c0.04-0.185,0.093-0.367,0.118-0.555
					c0.006-0.043,0.003-0.087,0.008-0.13C127.938,312.638,127.715,311.2,127.271,309.965z"/>
				<path style="fill:#D3756A;" d="M144.091,315.405c-0.014-0.133-0.017-0.266-0.028-0.399c-0.009-0.113-0.017-0.225-0.024-0.338
					c-0.083-1.345-0.025-2.675,0.071-3.869c-0.927,0.888-1.57,2.535-1.526,4.234c0.005,0.174,0.009,0.349,0.029,0.524
					c0.005,0.053,0.018,0.105,0.024,0.158c0.217,1.817,1.242,3.467,2.408,4.197C144.647,318.551,144.25,316.999,144.091,315.405z"/>
			</g>
			<g>
				<path style="fill:#F3CB75;" d="M178.754,345.858l-12.256-12.256l-2.449,2.449l12.256,12.256c0.74,0.74,1.119,1.816,0.848,2.826
					c-0.309,1.154,0.082,2.454,1.182,3.229c0.992,0.699,2.374,0.704,3.376,0.02c0.689-0.471,1.101-1.147,1.251-1.867
					c0.72-0.15,1.396-0.561,1.867-1.251c0.684-1.002,0.679-2.384-0.02-3.376c-0.775-1.1-2.075-1.492-3.229-1.182
					C180.57,346.977,179.493,346.598,178.754,345.858z"/>
				<g>
					<path style="fill:#C56363;" d="M154.499,320.991c0.451,0.069,0.877,0.285,1.166,0.635c0.521,0.632,0.55,1.625,0.067,2.304
						c0.64,0.363,1.081,1.063,1.165,1.798c0.083,0.735-0.2,1.51-0.74,2.027c0.629,0.358,0.979,1.262,0.903,1.989
						c-0.076,0.727-0.604,1.395-1.296,1.64c0.325,0.629,0.19,1.404-0.161,2.031c-0.351,0.628-1.025,1.066-1.737,1.129
						c0.251,0.604,0.342,1.334,0.219,2.003c0.038,0.039,0.07,0.078,0.109,0.117c5.503,5.503,12.855,7.073,16.421,3.507
						s1.996-10.918-3.507-16.421C162.423,319.062,157.932,318.773,154.499,320.991z"/>
					<path style="fill:#E89267;" d="M153.868,334.545c0.712-0.063,1.386-0.501,1.737-1.129c0.351-0.628,0.486-1.402,0.161-2.031
						c0.692-0.245,1.22-0.913,1.296-1.64c0.076-0.727-0.274-1.631-0.903-1.989c0.541-0.518,0.823-1.292,0.74-2.027
						c-0.083-0.735-0.525-1.435-1.165-1.798c0.483-0.68,0.454-1.673-0.067-2.304c-0.289-0.35-0.715-0.566-1.166-0.635
						c-0.073,0.047-0.149,0.089-0.221,0.139c0.144,0.69,0.012,1.448-0.453,1.974c0.277,0.432,0.346,0.99,0.184,1.476
						s-0.704,0.843-1.184,1.021c0.241,0.512,0.29,1.112,0.135,1.657c-0.155,0.544-0.555,1.113-1.03,1.422
						c0.419,0.93,0.162,2.174-0.635,2.809c0.328,0.665,0.479,1.413,0.448,2.154c0.6,0.954,1.378,1.925,2.343,2.905
						C154.21,335.879,154.119,335.149,153.868,334.545z"/>
				</g>
			</g>
			<g>
				<path style="fill:#DD947D;" d="M169.36,346.077l4.844-7.818c1.23-1.985,3.816-2.632,5.836-1.46l9.969,5.786
					c4.6,2.67,7.944,7.064,9.291,12.209l12.518,47.802c1.391,4.979-1.512,10.145-6.488,11.545l0,0
					c-5.64,1.587-11.338-2.331-11.874-8.165l-4.133-46.31l-0.831,0.232c-3.395,0.945-7.037,0.253-9.848-1.873l-8.214-6.211
					C168.645,350.465,168.182,347.979,169.36,346.077z"/>
				<path style="fill:#D3756A;" d="M169.294,354.643L169.294,354.643c-1.057,1.438-0.577,3.48,1.01,4.297l5.449,2.806
					c1.152,0.593,2.567,0.153,3.179-0.99l0,0c0.551-1.03,0.271-2.308-0.661-3.012l-4.888-3.697
					C172.092,353.071,170.252,353.339,169.294,354.643z"/>
				<path style="fill:#D3756A;" d="M186.253,357.735l6.022-7.357v1.755C192.275,355.395,189.506,357.97,186.253,357.735
					L186.253,357.735z"/>
				<polygon style="fill:#D3756A;" points="189.323,359.667 197.588,356.99 189.891,363.352 				"/>
			</g>
			<g>
				<g>
					<path style="fill:#F3CB75;" d="M115.879,431.914l-9.556-14.461l-2.89,1.91l9.556,14.461c0.577,0.873,0.733,2.003,0.265,2.939
						c-0.534,1.069-0.411,2.421,0.512,3.4c0.832,0.883,2.186,1.165,3.304,0.695c0.77-0.323,1.308-0.904,1.599-1.579
						c0.735-0.003,1.48-0.271,2.079-0.852c0.871-0.845,1.142-2.2,0.656-3.312c-0.539-1.233-1.735-1.877-2.927-1.804
						C117.434,433.373,116.456,432.786,115.879,431.914z"/>
					<path style="fill:#933F61;" d="M108.894,407.922c4.291,6.493,4.358,14.01,0.15,16.79c-4.207,2.78-11.097-0.229-15.387-6.721
						c-4.291-6.493-2.709-11.514,1.499-14.295C99.364,400.916,104.603,401.43,108.894,407.922z"/>
				</g>
				<g>
					<path style="fill:#F3CB75;" d="M123.17,436.634l7.967-15.393l-3.076-1.592l-7.967,15.393c-0.481,0.929-1.392,1.617-2.437,1.664
						c-1.193,0.055-2.314,0.822-2.719,2.105c-0.365,1.157,0.048,2.476,1.004,3.224c0.657,0.514,1.427,0.701,2.159,0.627
						c0.361,0.64,0.958,1.161,1.757,1.4c1.162,0.349,2.478-0.075,3.212-1.041c0.814-1.071,0.793-2.43,0.148-3.436
						C122.654,438.703,122.689,437.563,123.17,436.634z"/>
					<path style="fill:#933F61;" d="M140.712,418.839c-3.577,6.911-10.108,10.635-14.587,8.317c-4.479-2.318-5.21-9.8-1.633-16.712
						c3.577-6.911,8.733-7.978,13.212-5.66C142.184,407.102,144.29,411.928,140.712,418.839z"/>
				</g>
				<g>
					<path style="fill:#F3CB75;" d="M105.198,438.005l-9.556-14.461l-2.89,1.91l9.556,14.461c0.577,0.873,0.733,2.003,0.265,2.939
						c-0.534,1.068-0.411,2.421,0.512,3.4c0.832,0.883,2.186,1.165,3.304,0.695c0.77-0.323,1.308-0.904,1.599-1.579
						c0.735-0.003,1.48-0.271,2.079-0.852c0.871-0.845,1.142-2.2,0.656-3.312c-0.539-1.233-1.735-1.877-2.927-1.804
						C106.753,439.464,105.774,438.877,105.198,438.005z"/>
					<path style="fill:#C56363;" d="M98.213,414.013c4.291,6.493,4.358,14.01,0.15,16.79c-4.207,2.781-11.097-0.229-15.387-6.721
						c-4.291-6.493-2.709-11.514,1.499-14.295C88.682,407.007,93.922,407.521,98.213,414.013z"/>
				</g>
				<g>
					<path style="fill:#F3CB75;" d="M126.424,434.958l14.236-9.887l-1.976-2.845l-14.236,9.887
						c-0.859,0.597-1.986,0.779-2.932,0.333c-1.08-0.509-2.43-0.355-3.387,0.59c-0.863,0.852-1.114,2.212-0.619,3.319
						c0.341,0.762,0.934,1.287,1.616,1.563c0.02,0.735,0.305,1.474,0.9,2.059c0.865,0.851,2.226,1.091,3.326,0.58
						c1.22-0.567,1.836-1.778,1.736-2.968C125.001,436.546,125.565,435.555,126.424,434.958z"/>
					<path style="fill:#C56363;" d="M150.248,427.421c-6.392,4.439-13.906,4.68-16.783,0.538
						c-2.877-4.142-0.027-11.099,6.365-15.538c6.392-4.439,11.449-2.974,14.326,1.169
						C157.033,417.732,156.64,422.982,150.248,427.421z"/>
				</g>
				<g>
					<path style="fill:#F3CB75;" d="M139.216,432.905l-16.058-9.62l-1.922,3.209l16.058,9.62c0.969,0.581,1.649,1.608,1.631,2.738
						c-0.021,1.29,0.73,2.549,2.086,3.072c1.223,0.471,2.672,0.114,3.542-0.866c0.598-0.674,0.852-1.491,0.82-2.285
						c0.715-0.347,1.315-0.955,1.627-1.801c0.454-1.229,0.085-2.676-0.907-3.532c-1.1-0.949-2.566-1.017-3.693-0.39
						C141.413,433.6,140.186,433.485,139.216,432.905z"/>
					<path style="fill:#C56363;" d="M121.212,412.802c7.21,4.319,10.785,11.608,7.986,16.281
						c-2.799,4.672-10.913,4.958-18.123,0.639c-7.21-4.319-8.014-9.948-5.215-14.62C108.66,410.43,114.003,408.483,121.212,412.802z
						"/>
				</g>
				<g>
					<path style="fill:#FFFFFF;" d="M109.211,427.682h19.08h15.771h10.84h0.969c1.043,0,1.889-0.846,1.889-1.889
						c0-1.043-0.846-1.889-1.889-1.889H81.633c-1.043,0-1.889,0.846-1.889,1.889c0,1.043,0.846,1.889,1.889,1.889h0.969h10.84
						H109.211z"/>
					<path style="fill:#E4737B;" d="M93.441,427.682h-10.84l6.581,23.098c2.937-0.005,5.874-0.11,8.803-0.315L93.441,427.682z"/>
					<path style="fill:#B06479;" d="M89.182,450.78l2.922,10.255h7.99l-2.108-10.57C95.055,450.669,92.119,450.775,89.182,450.78z"
						/>
					<path style="fill:#E4737B;" d="M141.655,439.748c3.895-1.697,7.707-3.583,11.418-5.65l1.828-6.416h-10.84L141.655,439.748z"/>
					<path style="fill:#B06479;" d="M141.655,439.748l-4.246,21.287h7.99l7.674-26.937
						C149.362,436.165,145.55,438.051,141.655,439.748z"/>
					<path style="fill:#FFFFFF;" d="M93.441,427.682l4.545,22.783c4.296-0.3,8.577-0.814,12.824-1.534l-1.598-21.249H93.441z"/>
					<path style="fill:#F4F3E9;" d="M97.985,450.465l2.108,10.57h11.625l-0.91-12.104
						C106.562,449.651,102.281,450.165,97.985,450.465z"/>
					<path style="fill:#FFFFFF;" d="M128.292,427.682l-1.312,17.455c4.993-1.506,9.896-3.307,14.676-5.389l2.407-12.066H128.292z"/>
					<path style="fill:#F4F3E9;" d="M126.979,445.137l-1.195,15.898h11.625l4.246-21.287
						C136.875,441.83,131.972,443.631,126.979,445.137z"/>
					<path style="fill:#E4737B;" d="M109.211,427.682l1.598,21.249c5.462-0.927,10.866-2.193,16.17-3.794l1.312-17.455H109.211z"/>
					<path style="fill:#B06479;" d="M110.809,448.931l0.91,12.104h14.065l1.195-15.898
						C121.675,446.737,116.271,448.004,110.809,448.931z"/>
				</g>
			</g>
			<g>
				<g>
					<path style="fill:#FFFFFF;" d="M180.066,394.88c0.399-2.575-0.776-5.123-2.993-6.491l-10.661-6.578l-0.992,1.607l10.661,6.578
						c1.57,0.97,2.401,2.772,2.119,4.594l-1.255,8.098h1.912L180.066,394.88z"/>
					<polygon style="fill:#F4F3E9;" points="176.943,402.688 175.483,412.107 177.351,412.397 178.855,402.688 					"/>
				</g>
				<g>
					<path style="fill:#FFFFFF;" d="M187.85,405.797h-29.253c-0.661,0-1.196,0.536-1.196,1.196c0,0.661,0.536,1.196,1.196,1.196
						h29.253c0.661,0,1.196-0.536,1.196-1.196C189.046,406.333,188.511,405.797,187.85,405.797z"/>
					<g>
						<polygon style="fill:#5DABFF;" points="163.315,461.035 183.132,461.035 184.341,446.26 162.106,446.26 						"/>
						<polygon style="fill:#E4737B;" points="159.748,417.453 162.106,446.26 184.341,446.26 186.699,417.453 						"/>
						<polygon style="fill:#5DABFF;" points="187.457,408.19 158.99,408.19 159.748,417.453 186.699,417.453 						"/>
					</g>
					<path style="fill:#FFFFFF;" d="M183.221,431.825c0,4.375-2.432,7.922-5.432,7.922c-3,0-5.432-3.547-5.432-7.922
						c0-4.375,2.432-7.923,5.432-7.923C180.789,423.903,183.221,427.45,183.221,431.825z"/>
				</g>
			</g>
		</g>
	</g>
	<g>
		<g>
			<rect x="270.919" y="460.957" style="fill:#F4D071;" width="184.746" height="3.464"/>
			<rect x="270.919" y="464.421" style="fill:#ECA85E;" width="184.746" height="9.21"/>
		</g>
		<g>
			<g>
				<path style="fill:#353A3E;" d="M346.589,340.564c-15.366,5.202-31.227,5.07-46.807,0.546
					c7.595-3.219,11.961-11.509,13.173-19.668c1.212-8.159-0.117-16.449-0.666-24.679c-0.519-7.776-0.32-15.713,1.952-23.167
					c2.273-7.454,6.801-14.434,13.46-18.482c6.659-4.049,15.567-4.732,22.218-0.67c4.446-1.9,10.193-2.029,14.662-0.187
					c7.486,3.087,12.133,10.894,13.819,18.814c1.686,7.92,0.929,16.123,0.625,24.215c-0.303,8.092-0.081,16.489,3.355,23.821
					c2.51,5.356,7.526,10.264,13.431,9.928C383.115,343.388,362.799,347.705,346.589,340.564z"/>
				<g>
					<g>
						<path style="fill:#4F565B;" d="M346.647,269.172c-3.954,0.821-8.5,2.498-12.947,4.382c-4.441,1.899-8.801,4.013-12.133,6.294
							c4.004,0.468,9.123-0.393,13.794-2.393C340.04,275.476,344.209,272.383,346.647,269.172z"/>
					</g>
					<g>
						<path style="fill:#4F565B;" d="M347.812,264.412c-5.915-1.591-15.175-0.709-20.683,1.971
							C333.043,267.974,342.304,267.092,347.812,264.412z"/>
					</g>
					<g>
						<path style="fill:#4F565B;" d="M371.834,280.926c-2.334-2.286-5.454-4.616-8.632-6.854c-3.186-2.226-6.439-4.367-9.382-5.783
							c1.285,2.996,4.023,6.227,7.413,8.591C364.61,279.262,368.58,280.737,371.834,280.926z"/>
					</g>
					<g>
						<path style="fill:#4F565B;" d="M368.293,269.635c-2.918-2.565-8.432-4.662-12.318-4.684
							C358.893,267.516,364.408,269.613,368.293,269.635z"/>
					</g>
				</g>
			</g>
			<g>
				<path style="fill:#A6B769;" d="M311.067,353.007L311.067,353.007c-7.402,0.784-13.928,5.2-17.408,11.779l-7.985,15.094
					l28.663,4.837L311.067,353.007z"/>
				<g>
					<polygon style="fill:#8E4746;" points="291.797,424.859 311.067,384.165 289.798,380.576 273.492,416.248 					"/>
					<polygon style="fill:#353A3E;" points="289.798,380.576 311.067,384.165 307.332,392.053 288.261,383.939 					"/>
				</g>
			</g>
			<g>
				<path style="fill:#A6B769;" d="M382.821,353.007L382.821,353.007c7.402,0.784,13.928,5.2,17.408,11.779l7.985,15.094
					l-28.663,4.837L382.821,353.007z"/>
				<g>
					<polygon style="fill:#B06556;" points="402.091,424.859 382.821,384.165 404.09,380.576 420.396,416.248 					"/>
					<polygon style="fill:#353A3E;" points="404.09,380.576 382.821,384.165 386.556,392.053 405.627,383.939 					"/>
				</g>
			</g>
			<g>
				<g>
					<path style="fill:#A6B769;" d="M389.513,412.654l1.942-2.548c3.84-5.038,4.267-11.892,1.083-17.368l0,0
						c-6.365-10.944-9.717-23.379-9.717-36.039v-3.691l-12.139-2.105l-23.738-0.941l-23.738,0.941l-12.139,2.105v3.691
						c0,12.66-3.353,25.095-9.717,36.039l0,0c-3.184,5.476-2.757,12.331,1.083,17.368l1.942,2.548
						c2.314,3.035,3.266,6.895,2.629,10.658l-6.37,37.634h46.311l0,0h46.311l-6.37-37.634
						C386.248,419.548,387.2,415.689,389.513,412.654z"/>
					<g>
						<g>
							<path style="fill:#8D9B51;" d="M366.539,363.264c-2.576,1.955-5.711,3.819-9.275,5.112
								c-3.552,1.301-7.514,2.032-11.456,1.923c-3.941-0.118-7.855-1.074-11.327-2.577c-3.484-1.496-6.507-3.536-8.966-5.636
								c1.672,2.761,4.373,5.59,7.911,7.687c3.518,2.109,7.855,3.472,12.294,3.6c4.439,0.127,8.847-0.985,12.48-2.889
								C361.852,368.594,364.711,365.925,366.539,363.264z"/>
						</g>
						<g>
							<path style="fill:#8D9B51;" d="M353.619,391.12c-3.14-4.378-8.449-9.274-14.622-12.807
								c-6.148-3.577-13.044-5.723-18.405-6.25c4.93,2.188,11.189,5.024,17.124,8.472
								C343.67,383.948,349.258,387.947,353.619,391.12z"/>
						</g>
						<g>
							<path style="fill:#8D9B51;" d="M376.115,370.721c-4.064-0.044-9.397,0.913-14.366,2.898
								c-4.981,1.956-9.522,4.91-12.454,7.725c3.671-1.754,8.338-4.028,13.167-5.927
								C367.28,373.495,372.239,371.957,376.115,370.721z"/>
						</g>
						<g>
							<path style="fill:#8D9B51;" d="M377.86,417.054c-4.393-1.702-9.512-3.526-15.006-5.366c-2.756-0.915-5.568-1.856-8.502-2.748
								c-2.931-0.86-6.087-1.628-9.34-1.512c-3.235,0.049-6.374,0.791-9.298,1.765c-2.933,0.978-5.687,2.176-8.35,3.283
								c-2.661,1.111-5.24,2.135-7.775,2.856c-2.531,0.728-5.017,1.129-7.378,1.171c2.333,0.327,4.929,0.249,7.594-0.227
								c2.669-0.467,5.399-1.301,8.147-2.248c5.478-1.868,11.197-4.292,17.094-4.387c2.922-0.112,5.852,0.542,8.744,1.297
								c2.92,0.796,5.797,1.58,8.586,2.34C367.978,414.765,373.255,416.058,377.86,417.054z"/>
						</g>
						<g>
							<path style="fill:#8D9B51;" d="M377.676,430.401c-6.49,2.27-14.735,5.288-23.166,7.729
								c-8.419,2.48-16.992,4.375-23.684,5.954c6.843,0.599,15.938-0.26,24.6-2.816
								C364.103,438.759,372.231,434.589,377.676,430.401z"/>
						</g>
						<g>
							<path style="fill:#8D9B51;" d="M362.891,432.772c-6.036-0.584-13.732-1.332-21.321-2.771
								c-7.597-1.397-15.044-3.477-20.884-5.111c5.026,3.382,12.498,6.505,20.355,7.945
								C348.887,434.328,356.984,434.112,362.891,432.772z"/>
						</g>
					</g>
				</g>
				<g>
					<path style="fill:#B06556;" d="M355.777,345.662v-8.085c-2.585,2.33-5.605,3.672-8.833,3.672l0,0
						c-3.228,0-6.247-1.342-8.833-3.672v8.085l-14.905,5.24l2.471,3.643c4.782,7.05,12.747,11.271,21.266,11.271l0,0
						c8.519,0,16.484-4.222,21.266-11.271l2.471-3.643L355.777,345.662z"/>
					<path style="fill:#353A3E;" d="M346.944,341.249c3.228,0,6.247-1.342,8.833-3.672v-7.232l-8.833,2.822l-8.833-2.822v7.232
						C340.697,339.907,343.716,341.249,346.944,341.249L346.944,341.249z"/>
				</g>
			</g>
			<g>
				<path style="fill:#B06556;" d="M352.888,279.593c-1.944,6.327-8.121,11.36-14.701,12.079c4.103-3.818,7.67-8.577,10.275-13.54
					c-7.657,7.097-17.277,12.046-27.497,14.176c-0.113,0.989-0.178,1.993-0.178,3.013v15.005c0,14.446,11.711,26.156,26.156,26.156
					l0,0c14.446,0,26.156-11.71,26.156-26.156v-15.005c0-1.547-0.142-3.061-0.4-4.534c-3.325,0.054-6.663-0.576-9.723-1.879
					C358.719,287.094,355.439,283.454,352.888,279.593z"/>
				<g>
					<g>
						<g>
							<path style="fill:#353A3E;" d="M333.953,289.075c-2.992,0.361-5.371,2.273-6.431,4.733c4.525-1.043,9.162-1.605,13.805-1.67
								C339.711,290.002,336.944,288.712,333.953,289.075z"/>
						</g>
						<path style="fill:#353A3E;" d="M336.631,298.499c0,1.336-1.083,2.419-2.418,2.419s-2.419-1.083-2.419-2.419
							c0-1.336,1.083-2.419,2.419-2.419S336.631,297.164,336.631,298.499z"/>
					</g>
					<g>
						<g>
							<path style="fill:#353A3E;" d="M359.935,289.075c2.992,0.361,5.371,2.273,6.431,4.733c-4.525-1.043-9.162-1.605-13.805-1.67
								C354.177,290.002,356.944,288.712,359.935,289.075z"/>
						</g>
						<path style="fill:#353A3E;" d="M357.258,298.499c0,1.336,1.083,2.419,2.418,2.419c1.336,0,2.419-1.083,2.419-2.419
							c0-1.336-1.083-2.419-2.419-2.419C358.34,296.081,357.258,297.164,357.258,298.499z"/>
					</g>
					<path style="fill:#8E4746;" d="M350.708,308.598c-2.986-0.06-5.972-0.12-8.958-0.18c0.266,0.921,1.401,1.85,2.23,2.332
						c0.829,0.482,1.845,0.629,2.777,0.404C348.007,310.852,349.766,309.472,350.708,308.598z"/>
					<g>
						<path style="fill:#FFFFFF;" d="M333.331,315.933c-0.135,3.794,1.803,7.617,4.781,10.024c2.324-2.786,5.936-4.554,9.593-5.003
							c3.752-0.46,7.528,0.27,11.112,1.548c1.778-2.004,3.185-4.32,3.76-6.609C352.977,313.799,342.924,313.813,333.331,315.933z"/>
						<path style="fill:#E4737B;" d="M347.704,320.954c-3.657,0.449-7.269,2.217-9.593,5.003c0.607,0.491,1.253,0.927,1.938,1.287
							c4.044,2.128,9.143,1.944,13.169-0.217c1.946-1.045,3.935-2.648,5.598-4.524C355.232,321.224,351.456,320.494,347.704,320.954
							z"/>
					</g>
				</g>
			</g>
			<g>
				<g>
					<path style="fill:#A55161;" d="M293.006,349.21v5.589c4.196,5.912,15.689,14.377,25.019,13.168l-2.077-4.25
						C301.171,362.861,293.006,349.21,293.006,349.21z"/>
					<path style="fill:#E8916A;" d="M343.043,330.112c-13.797,6.147-24.313,18.759-27.096,33.605l2.077,4.25
						c3.838-16.661,17.746-34.074,25.639-35.848L343.043,330.112z"/>
					<path style="fill:#ECA85E;" d="M315.948,363.717c2.783-14.846,13.299-27.457,27.096-33.605
						c-14.26-4.092-30.508-0.376-41.571,9.508c-3.242,2.897-5.798,6.157-8.466,9.59C293.006,349.21,301.171,362.861,315.948,363.717
						z"/>
					<g>
						<path style="fill:#E4737B;" d="M309.493,350.035c-0.893,1.038-1.535,2.359-1.489,3.727c0.046,1.369,0.9,2.752,2.21,3.152
							c1.623,0.497,3.299-0.563,4.534-1.727c1-0.942,1.92-2.024,2.367-3.323c0.447-1.299,0.344-2.851-0.54-3.902
							C314.445,345.43,311.002,348.281,309.493,350.035z"/>
						<path style="fill:#E4737B;" d="M314.687,339.082c-0.487,0.971-0.493,2.22,0.156,3.092c0.496,0.666,1.313,1.043,2.138,1.145
							c0.825,0.101,1.661-0.048,2.461-0.272c1.189-0.334,2.361-0.858,3.216-1.749c1.745-1.818,1.275-5.451-1.675-5.609
							C318.93,335.578,315.604,337.253,314.687,339.082z"/>
						<path style="fill:#E4737B;" d="M325.674,334.268c0.544,0.807,1.69,0.902,2.656,0.783c1.24-0.154,2.712-0.658,3.054-2.02
							c0.25-0.994-0.201-1.866-1.163-2.165C328.502,330.329,324.04,331.841,325.674,334.268z"/>
						<path style="fill:#E4737B;" d="M310.309,337.371c1.591-0.025,3.848-0.656,4.807-2.049c0.82-1.191,0.075-2.944-1.435-2.854
							c-1.355,0.081-2.991,1.324-4.071,2.06C308.011,335.618,308.118,337.407,310.309,337.371z"/>
						<path style="fill:#E4737B;" d="M303.082,343.946c-0.25,0.918-0.045,1.99,0.657,2.631c0.703,0.642,1.742,0.753,2.691,0.673
							c1.274-0.108,2.56-0.528,3.496-1.399c1.854-1.725,1.459-5.118-1.26-5.733C306.608,339.653,303.597,342.057,303.082,343.946z"
							/>
					</g>
				</g>
				<path style="fill:#B06556;" d="M288.809,367.966v-22.052c0-2.03,0.912-3.953,2.484-5.238l6.646-5.432
					c2.979-2.435,7.062-3.019,10.604-1.517l0,0c5.66,2.4,7.638,9.427,4.06,14.427l-3.505,4.898l-0.229,3.63
					c-0.369,5.836-3.1,11.269-7.564,15.046l0,0l-8.776,50.565c-1.317,7.59-9.112,12.199-16.397,9.697l0,0
					c-6.871-2.36-10.296-10.055-7.451-16.74L288.809,367.966z"/>
			</g>
			<g>
				<rect x="288.261" y="449.391" style="fill:#E8916A;" width="90.035" height="11.555"/>
				<rect x="378.296" y="449.391" style="fill:#CC6164;" width="69.6" height="11.555"/>
				<g>
					<rect x="288.261" y="452.347" style="fill:#A55161;" width="90.035" height="2.687"/>
					<rect x="378.296" y="452.347" style="fill:#1F235B;" width="69.6" height="2.687"/>
				</g>
				<polygon style="fill:#E8916A;" points="480.412,392.053 410.812,392.053 378.296,449.391 447.896,449.391 				"/>
				<path style="fill:#CC6164;" d="M410.812,392.053h69.6l-3.442-3.206c-4.178-3.892-9.676-6.056-15.387-6.056h-49.792
					c-3.904,0-5.788,4.784-2.931,7.446L410.812,392.053z"/>
				<g>
					<path style="fill:#CC6164;" d="M423.304,443.073c-5.595,0-10.177-2.149-12.902-6.051c-2.911-4.166-3.329-9.967-1.148-15.914
						c4.217-11.499,17.033-20.854,28.569-20.854c5.595,0,10.177,2.149,12.902,6.051c2.911,4.166,3.329,9.967,1.148,15.914
						C447.657,433.718,434.841,443.073,423.304,443.073z M437.823,403.479c-10.294,0-21.752,8.406-25.542,18.74
						c-1.839,5.016-1.568,9.617,0.764,12.957c2.105,3.013,5.747,4.672,10.259,4.672c10.295,0,21.752-8.406,25.542-18.74
						c1.839-5.016,1.568-9.617-0.764-12.957C445.977,405.139,442.335,403.479,437.823,403.479z"/>
				</g>
				<polygon style="opacity:0.2;fill:#353A3E;" points="378.296,449.391 469.863,410.655 447.896,449.391 				"/>
			</g>
			<g>
				<g>
					<path style="fill:#FFFFFF;" d="M332.61,415.352h-2.15v-18.364c0-2.318,1.145-4.481,3.063-5.786l10.846-7.374l1.209,1.778
						l-10.846,7.374c-1.329,0.904-2.122,2.402-2.122,4.008V415.352z"/>
				</g>
				<g>
					<polygon style="fill:#FFFFFF;" points="343.761,409.44 340.395,461.036 343.871,461.036 348.556,409.44 					"/>
					<polygon style="fill:#FFFFFF;" points="314.514,409.44 319.2,461.036 322.676,461.036 319.31,409.44 					"/>
					<polygon style="fill:#E4737B;" points="319.31,409.44 322.676,461.036 328.01,461.036 326.67,409.44 					"/>
					<polygon style="fill:#E4737B;" points="336.401,409.44 335.061,461.036 340.395,461.036 343.761,409.44 					"/>
					<polygon style="fill:#FFFFFF;" points="326.67,409.44 328.01,461.036 335.061,461.036 336.401,409.44 					"/>
				</g>
				<polygon style="fill:#1F235B;" points="348.734,405.454 314.337,405.454 312.896,409.44 350.175,409.44 				"/>
				<polygon style="fill:#3E4870;" points="345.419,402.005 317.652,402.005 316.488,405.454 346.583,405.454 				"/>
			</g>
		</g>
	</g>
</g>
</svg>
